<svg version="1.1" xmlns="http://www.w3.org/2000/svg" viewBox="0 0 977.112474750455 521.6496695863732" width="977.112474750455" height="521.6496695863732" filter="invert(93%) hue-rotate(180deg)">
  <!-- svg-source:excalidraw -->
  
  <defs>
    <style class="style-fonts">
      @font-face {
        font-family: "Virgil";
        src: url("https://excalidraw.com/Virgil.woff2");
      }
      @font-face {
        font-family: "Cascadia";
        src: url("https://excalidraw.com/Cascadia.woff2");
      }
      @font-face {
        font-family: "Assistant";
        src: url("https://excalidraw.com/Assistant-Regular.woff2");
      }
    </style>
    
  </defs>
  <rect x="0" y="0" width="977.112474750455" height="521.6496695863732" fill="#ffffff"></rect><g stroke-linecap="round" transform="translate(11.22141281271837 10.66839293997657) rotate(359.56263613247927 87.95439193728649 102.80131604768958)"><path d="M32 0 C70.71 -1.23, 110.38 -0.08, 143.91 0 M32 0 C70.27 0.32, 108.31 -0.77, 143.91 0 M143.91 0 C164.69 0.83, 175.82 10.31, 175.91 32 M143.91 0 C163.16 -0.05, 175.67 11.61, 175.91 32 M175.91 32 C174.73 79.96, 174.6 128.75, 175.91 173.6 M175.91 32 C174.95 60.35, 174.77 90.22, 175.91 173.6 M175.91 173.6 C175.13 195.49, 166.23 206.88, 143.91 205.6 M175.91 173.6 C175.07 193.57, 164.64 204.99, 143.91 205.6 M143.91 205.6 C101.39 205.96, 61.23 204.66, 32 205.6 M143.91 205.6 C115.09 205.26, 86.47 204.92, 32 205.6 M32 205.6 C11.03 206.95, 1.52 195, 0 173.6 M32 205.6 C9.35 206, -1.25 193.17, 0 173.6 M0 173.6 C-3.11 143.17, -1.71 112.26, 0 32 M0 173.6 C-1.49 131.87, -1.37 90.89, 0 32 M0 32 C0.86 10.45, 9.47 -0.59, 32 0 M0 32 C-0.81 11.8, 9.83 1.78, 32 0" stroke="#1e1e1e" stroke-width="2" fill="none"></path></g><g stroke-linecap="round"><g transform="translate(10.760220520570897 31.47839864360617) rotate(0 87.67825852096513 -0.9530245491409204)"><path d="M-0.76 -0.6 C28.21 -0.77, 145.45 -0.87, 174.74 -1.05 M1.04 1.69 C30.33 1.21, 148.31 -2.4, 177.13 -2.73" stroke="#1e1e1e" stroke-width="2" fill="none"></path></g></g><mask></mask><g transform="translate(85.29448749222655 13.002104508482404) rotate(359.56263613247927 21.985222808782822 8.452528703489904)"><text x="0" y="11.847064230811455" font-family="Virgil, Segoe UI Emoji" font-size="13.524045925583852px" fill="#1e1e1e" text-anchor="start" style="white-space: pre;" direction="ltr" dominant-baseline="alphabetic">Cliente</text></g><g transform="translate(14.292295042637022 35.74372779909211) rotate(359.56263613247927 54.63855070670877 8.452528703489918)"><text x="0" y="11.847064230811455" font-family="Virgil, Segoe UI Emoji" font-size="13.524045925583852px" fill="#1e1e1e" text-anchor="start" style="white-space: pre;" direction="ltr" dominant-baseline="alphabetic">- nombre : String</text></g><g transform="translate(12.941383815826157 55.06865962055505) rotate(0 60.52020982827267 8.452528703489918)"><text x="0" y="11.847064230811455" font-family="Virgil, Segoe UI Emoji" font-size="13.524045925583852px" fill="#1e1e1e" text-anchor="start" style="white-space: pre;" direction="ltr" dominant-baseline="alphabetic">- direccion : String</text></g><g transform="translate(12.941383815826157 76.70713310148918) rotate(0 83.67500868715777 8.452528703489918)"><text x="0" y="11.847064230811455" font-family="Virgil, Segoe UI Emoji" font-size="13.524045925583852px" fill="#1e1e1e" text-anchor="start" style="white-space: pre;" direction="ltr" dominant-baseline="alphabetic">- documento de identidad</text></g><g stroke-linecap="round"><g transform="translate(12.484869307347651 106.09582624085184) rotate(0 87.67825852096513 -0.9530245491409346)"><path d="M-0.89 -0.01 C28.34 -0.12, 147.31 -0.95, 176.51 -1.28 M0.85 -1.06 C29.92 -1.47, 146.87 -3.13, 176.17 -3.08" stroke="#1e1e1e" stroke-width="2" fill="none"></path></g></g><mask></mask><g stroke-linecap="round" transform="translate(220.2291397583171 12.649669586373165) rotate(0 127.5 64)"><path d="M32 0 C74.81 -1.28, 118.94 -1.45, 223 0 M32 0 C87.17 -0.89, 143.91 -1.85, 223 0 M223 0 C242.43 -1.58, 254.36 10.12, 255 32 M223 0 C243.37 1.38, 253.13 12.54, 255 32 M255 32 C256.01 49.28, 256.95 64.15, 255 96 M255 32 C255.83 52.08, 254.84 70.83, 255 96 M255 96 C256.9 115.56, 245.82 129.79, 223 128 M255 96 C256.94 119.59, 244.03 126.8, 223 128 M223 128 C179.86 131, 139.03 129.82, 32 128 M223 128 C170.72 128.16, 116.68 129.34, 32 128 M32 128 C11.59 127.08, 1.33 117.44, 0 96 M32 128 C10.27 130.28, -1.27 118.12, 0 96 M0 96 C0.29 82.59, -0.16 68.22, 0 32 M0 96 C0.34 76.81, -0.66 56.85, 0 32 M0 32 C0.26 11.73, 11 -1.98, 32 0 M0 32 C0.71 10.17, 12.24 1.2, 32 0" stroke="#1e1e1e" stroke-width="2" fill="none"></path></g><g stroke-linecap="round"><g transform="translate(221.05846854216912 47.62439390679677) rotate(0 127.66276364841605 -1.4093778657436644)"><path d="M0.94 0.32 C43.74 -0.19, 213.41 -2.88, 255.94 -3.4 M-0.03 -0.56 C42.75 -0.89, 212.69 -2.02, 255.32 -2.16" stroke="#1e1e1e" stroke-width="2" fill="none"></path></g></g><mask></mask><g transform="translate(305.2291397583171 19.649669586373165) rotate(0 34.57997131347656 12.5)"><text x="0" y="17.52" font-family="Virgil, Segoe UI Emoji" font-size="20px" fill="#1e1e1e" text-anchor="start" style="white-space: pre;" direction="ltr" dominant-baseline="alphabetic">Cuenta</text></g><g transform="translate(227.2291397583171 53.649669586373165) rotate(0 103.83976745605469 10.481264473390524)"><text x="0" y="14.69054028590416" font-family="Virgil, Segoe UI Emoji" font-size="16.770023157424838px" fill="#1e1e1e" text-anchor="start" style="white-space: pre;" direction="ltr" dominant-baseline="alphabetic">- cantidadDinero : double</text></g><g stroke-linecap="round" transform="translate(31.76345750561535 254.64966958637316) rotate(0 127.5 128.5)"><path d="M32 0 C102.34 -0.08, 175.6 1.21, 223 0 M32 0 C94.53 0.7, 156.79 -0.11, 223 0 M223 0 C245.96 -1.81, 255.21 10.71, 255 32 M223 0 C242.67 0.89, 255.81 8.38, 255 32 M255 32 C257.03 75.21, 254.85 119.71, 255 225 M255 32 C255.9 103.12, 255.57 174.67, 255 225 M255 225 C254.68 244.95, 246.25 255.63, 223 257 M255 225 C254.71 248.47, 245.81 259.08, 223 257 M223 257 C156.19 257.47, 85.2 256.82, 32 257 M223 257 C162.03 257.75, 101.69 257.17, 32 257 M32 257 C9.75 255.56, 0.97 247, 0 225 M32 257 C11.32 257.03, 1.82 245.72, 0 225 M0 225 C-1.13 178.37, -1.16 128.12, 0 32 M0 225 C0.69 182.09, 0.17 138.98, 0 32 M0 32 C0.18 10.93, 11.23 0.21, 32 0 M0 32 C0.25 9.5, 10.68 0.16, 32 0" stroke="#1e1e1e" stroke-width="2" fill="none"></path></g><g stroke-linecap="round"><g transform="translate(32.592786289467256 289.62439390679674) rotate(0 127.66276364841605 -1.4093778657436644)"><path d="M-0.74 0.73 C41.94 0.4, 212.6 -1.85, 255.36 -2.51 M1.08 0.07 C43.66 -0.6, 212.06 -4.1, 254.43 -4.47" stroke="#1e1e1e" stroke-width="2" fill="none"></path></g></g><mask></mask><g transform="translate(86.76345750561535 257.6496695863732) rotate(0 69.19993591308594 12.5)"><text x="0" y="17.52" font-family="Virgil, Segoe UI Emoji" font-size="20px" fill="#1e1e1e" text-anchor="start" style="white-space: pre;" direction="ltr" dominant-baseline="alphabetic">Cuenta debito</text></g><g transform="translate(38.76345750561535 295.6496695863732) rotate(0 108.53775787353516 8.6495838361746)"><text x="0" y="12.1232567047823" font-family="Virgil, Segoe UI Emoji" font-size="13.839334137879336px" fill="#1e1e1e" text-anchor="start" style="white-space: pre;" direction="ltr" dominant-baseline="alphabetic">- porcentaje de interes : double</text></g><g stroke-linecap="round"><g transform="translate(32.80724121369843 354.1879798078337) rotate(0 127.66276364841605 -1.409377865743636)"><path d="M0.34 0.04 C42.87 -0.51, 213.01 -3.09, 255.67 -3.75 M-0.95 -0.98 C41.42 -1.38, 212.07 -2.33, 254.91 -2.7" stroke="#1e1e1e" stroke-width="2" fill="none"></path></g></g><mask></mask><g stroke-linecap="round" transform="translate(403.76345750561535 255.64966958637316) rotate(0 127.5 64)"><path d="M32 0 C106.95 -2.09, 178.17 -2.25, 223 0 M32 0 C80.11 -0.31, 127.89 -0.12, 223 0 M223 0 C245.52 1.76, 255.93 11.38, 255 32 M223 0 C246.25 -2.29, 252.9 9.54, 255 32 M255 32 C256.65 55.8, 253.81 77.91, 255 96 M255 32 C254.33 52.19, 254.01 74.19, 255 96 M255 96 C255.41 117.05, 243.53 127.59, 223 128 M255 96 C255.98 115.44, 242.79 127.36, 223 128 M223 128 C147.64 128.75, 70.65 128.57, 32 128 M223 128 C165.99 128.29, 111.62 128.78, 32 128 M32 128 C9.51 127.03, 1.93 116.14, 0 96 M32 128 C11.1 129.1, -0.73 118.01, 0 96 M0 96 C-1.4 80.15, 0.11 68.04, 0 32 M0 96 C0.37 77.38, 0.1 57.09, 0 32 M0 32 C1.66 11.29, 10.47 -0.31, 32 0 M0 32 C-2.13 9.21, 12.12 0.15, 32 0" stroke="#1e1e1e" stroke-width="2" fill="none"></path></g><g stroke-linecap="round"><g transform="translate(404.59278628946726 290.62439390679674) rotate(0 127.66276364841605 -1.4093778657436644)"><path d="M-0.91 -0.45 C41.42 -1.17, 211.59 -3.13, 254.32 -3.41 M0.81 -1.73 C43.47 -2.37, 214.17 -1.78, 256.5 -2.19" stroke="#1e1e1e" stroke-width="2" fill="none"></path></g></g><mask></mask><g transform="translate(465.76345750561535 260.6496695863732) rotate(0 73.43993377685547 12.5)"><text x="0" y="17.52" font-family="Virgil, Segoe UI Emoji" font-size="20px" fill="#1e1e1e" text-anchor="start" style="white-space: pre;" direction="ltr" dominant-baseline="alphabetic">Cuenta credito</text></g><g stroke-linecap="round"><g transform="translate(404.80724121369843 330.1879798078337) rotate(0 127.66276364841605 -1.409377865743636)"><path d="M0.33 0.85 C42.9 0.46, 212.97 -1.3, 255.59 -1.74 M-0.95 0.26 C41.47 -0.51, 212.02 -2.66, 254.78 -3.29" stroke="#1e1e1e" stroke-width="2" fill="none"></path></g></g><mask></mask><g transform="translate(39.2291397583171 322.6496695863732) rotate(0 93.81275939941406 9.747609005494496)"><text x="0" y="13.662248782101088" font-family="Virgil, Segoe UI Emoji" font-size="15.596174408791198px" fill="#1e1e1e" text-anchor="start" style="white-space: pre;" direction="ltr" dominant-baseline="alphabetic">- numero de cuenta : int</text></g><g stroke-linecap="round" transform="translate(709.6032725755558 252.64966958637316) rotate(0 127.5 64)"><path d="M32 0 C93.3 2.04, 158.69 0.9, 223 0 M32 0 C84.09 -1.28, 135.46 -0.67, 223 0 M223 0 C242.91 1.81, 254.37 12.43, 255 32 M223 0 C244.56 0.88, 256.72 12.96, 255 32 M255 32 C253.22 47.15, 254.14 62.82, 255 96 M255 32 C254.06 56.72, 254.5 82.04, 255 96 M255 96 C256.05 118.51, 242.46 128.06, 223 128 M255 96 C254.27 118.88, 243.93 127.66, 223 128 M223 128 C170.74 126.33, 118.69 128.06, 32 128 M223 128 C173.89 125.42, 123.49 126.26, 32 128 M32 128 C10.81 128.33, -0.57 115.91, 0 96 M32 128 C10 128.19, 1.11 118.13, 0 96 M0 96 C0.28 80.42, -0.62 64.13, 0 32 M0 96 C0.75 73.04, 0.37 51.16, 0 32 M0 32 C-1.64 10.85, 10.67 0.68, 32 0 M0 32 C0.54 11.64, 10.83 0.74, 32 0" stroke="#1e1e1e" stroke-width="2" fill="none"></path></g><g stroke-linecap="round"><g transform="translate(710.4326013594077 287.62439390679674) rotate(0 127.6627636484161 -1.4093778657436644)"><path d="M0.71 0.34 C43.36 -0.01, 212.97 -2.76, 255.36 -3.14 M-0.37 -0.53 C42.17 -0.61, 212.02 -1.23, 254.42 -1.77" stroke="#1e1e1e" stroke-width="2" fill="none"></path></g></g><mask></mask><g transform="translate(771.6032725755558 257.6496695863732) rotate(0 78.93993377685547 12.5)"><text x="0" y="17.52" font-family="Virgil, Segoe UI Emoji" font-size="20px" fill="#1e1e1e" text-anchor="start" style="white-space: pre;" direction="ltr" dominant-baseline="alphabetic">Tarjeta credito</text></g><g transform="translate(716.6032725755558 293.6496695863732) rotate(0 86.9691390991211 10.481264473390524)"><text x="0" y="14.69054028590416" font-family="Virgil, Segoe UI Emoji" font-size="16.770023157424838px" fill="#1e1e1e" text-anchor="start" style="white-space: pre;" direction="ltr" dominant-baseline="alphabetic">- numero tarjeta: int</text></g><g stroke-linecap="round"><g transform="translate(710.6470562836389 327.1879798078337) rotate(0 127.6627636484161 -1.409377865743636)"><path d="M-0.08 0.16 C42.35 -0.31, 211.87 -1.61, 254.29 -1.92 M-1.59 -0.8 C41.24 -1.67, 213.38 -3.12, 256.47 -3.57" stroke="#1e1e1e" stroke-width="2" fill="none"></path></g></g><mask></mask><g transform="translate(230.2291397583171 81.64966958637316) rotate(0 93.67758373119693 10.903060771878415)"><text x="0" y="15.281729977864769" font-family="Virgil, Segoe UI Emoji" font-size="17.444897235005445px" fill="#1e1e1e" text-anchor="start" style="white-space: pre;" direction="ltr" dominant-baseline="alphabetic">- Propietario : Cliente</text></g><g stroke-linecap="round"><g transform="translate(547.2291397583172 254.64966958637316) rotate(0 -91.38260869565221 -56.5)"><path d="M0 0 C-30.46 -18.83, -152.3 -94.17, -182.77 -113 M0 0 C-30.46 -18.83, -152.3 -94.17, -182.77 -113" stroke="#1e1e1e" stroke-width="1" fill="none"></path></g><g transform="translate(547.2291397583172 254.64966958637316) rotate(0 -91.38260869565221 -56.5)"><path d="M-158.29 -107.92 C-167.29 -109.79, -176.29 -111.66, -182.77 -113 M-158.29 -107.92 C-164.02 -109.11, -169.75 -110.3, -182.77 -113" stroke="#1e1e1e" stroke-width="1" fill="none"></path></g><g transform="translate(547.2291397583172 254.64966958637316) rotate(0 -91.38260869565221 -56.5)"><path d="M-167.28 -93.37 C-172.98 -100.59, -178.67 -107.81, -182.77 -113 M-167.28 -93.37 C-170.9 -97.97, -174.53 -102.56, -182.77 -113" stroke="#1e1e1e" stroke-width="1" fill="none"></path></g></g><mask></mask><g stroke-linecap="round"><g transform="translate(164.2291397583171 253.64966958637316) rotate(0 87.71681415929208 -56)"><path d="M0 0 C29.24 -18.67, 146.19 -93.33, 175.43 -112 M0 0 C29.24 -18.67, 146.19 -93.33, 175.43 -112" stroke="#1e1e1e" stroke-width="1" fill="none"></path></g><g transform="translate(164.2291397583171 253.64966958637316) rotate(0 87.71681415929208 -56)"><path d="M160.23 -92.15 C164.51 -97.74, 168.79 -103.32, 175.43 -112 M160.23 -92.15 C166.19 -99.93, 172.14 -107.7, 175.43 -112" stroke="#1e1e1e" stroke-width="1" fill="none"></path></g><g transform="translate(164.2291397583171 253.64966958637316) rotate(0 87.71681415929208 -56)"><path d="M151.03 -106.57 C157.9 -108.1, 164.77 -109.62, 175.43 -112 M151.03 -106.57 C160.59 -108.69, 170.15 -110.82, 175.43 -112" stroke="#1e1e1e" stroke-width="1" fill="none"></path></g></g><mask></mask><g transform="translate(419.2291397583171 297.6496695863732) rotate(0 99.29993438720703 12.5)"><text x="0" y="17.52" font-family="Virgil, Segoe UI Emoji" font-size="20px" fill="#1e1e1e" text-anchor="start" style="white-space: pre;" direction="ltr" dominant-baseline="alphabetic">- tarjeta : Tarjeta</text></g><g transform="translate(15.190012119938729 111.14588658790458) rotate(359.56263613247927 71.01609802246094 7.626096201643378)"><text x="0" y="10.688736436223348" font-family="Virgil, Segoe UI Emoji" font-size="12.201753922629393px" fill="#1e1e1e" text-anchor="start" style="white-space: pre;" direction="ltr" dominant-baseline="alphabetic">+ dameNombre() : String</text></g></svg>